<?xml version="1.0" encoding="UTF-8" standalone="no"?>
<!-- Created with Inkscape (http://www.inkscape.org/) -->

<svg
   xmlns:dc="http://purl.org/dc/elements/1.1/"
   xmlns:cc="http://creativecommons.org/ns#"
   xmlns:rdf="http://www.w3.org/1999/02/22-rdf-syntax-ns#"
   xmlns:svg="http://www.w3.org/2000/svg"
   xmlns="http://www.w3.org/2000/svg"
   xmlns:sodipodi="http://sodipodi.sourceforge.net/DTD/sodipodi-0.dtd"
   xmlns:inkscape="http://www.inkscape.org/namespaces/inkscape"
   id="svg17871"
   version="1.1"
   inkscape:version="0.91 r13725"
   xml:space="preserve"
   width="331.35745"
   height="211.11526"
   viewBox="0 0 331.35745 211.11526"
   sodipodi:docname="aps projector green led curve.svg"><metadata
     id="metadata17877"><rdf:RDF><cc:Work
         rdf:about=""><dc:format>image/svg+xml</dc:format><dc:type
           rdf:resource="http://purl.org/dc/dcmitype/StillImage" /><dc:title></dc:title></cc:Work></rdf:RDF></metadata><defs
     id="defs17875"><clipPath
       clipPathUnits="userSpaceOnUse"
       id="clipPath17885"><path
         d="m 372.96,182.96 106.32,0 0,-39.36 -106.32,0 0,39.36 z"
         id="path17887"
         inkscape:connector-curvature="0"
         style="clip-rule:evenodd" /></clipPath><clipPath
       clipPathUnits="userSpaceOnUse"
       id="clipPath17891"><path
         d="m 0,842.04 595.2,0 0,-841.92 -595.2,0 0,841.92 z"
         id="path17893"
         inkscape:connector-curvature="0" /></clipPath><clipPath
       clipPathUnits="userSpaceOnUse"
       id="clipPath18047"><path
         d="m 447.316,626.827 -299.46,0 0,-187.206 299.46,0 0,187.206 z"
         id="path18049"
         inkscape:connector-curvature="0" /></clipPath><clipPath
       clipPathUnits="userSpaceOnUse"
       id="clipPath18053"><path
         d="m 147.84,626.72 299.52,0 0,-187.2 -299.52,0 0,187.2 z"
         id="path18055"
         inkscape:connector-curvature="0"
         style="clip-rule:evenodd" /></clipPath><clipPath
       clipPathUnits="userSpaceOnUse"
       id="clipPath18059"><path
         d="m 116.16,626.72 362.88,0 0,-187.2 -362.88,0 0,187.2 z"
         id="path18061"
         inkscape:connector-curvature="0"
         style="clip-rule:evenodd" /></clipPath><clipPath
       clipPathUnits="userSpaceOnUse"
       id="clipPath18065"><path
         d="m 0,842.04 595.2,0 0,-841.92 -595.2,0 0,841.92 z"
         id="path18067"
         inkscape:connector-curvature="0" /></clipPath><clipPath
       clipPathUnits="userSpaceOnUse"
       id="clipPath30587"><path
         d="m 449.439,211.09 -304.943,0 0,195.548 304.943,0 0,-195.548 z"
         id="path30589"
         inkscape:connector-curvature="0" /></clipPath><clipPath
       clipPathUnits="userSpaceOnUse"
       id="clipPath30593"><path
         d="m 149.04,403.04 296.88,0 0,-187.2 -296.88,0 0,187.2 z"
         id="path30595"
         inkscape:connector-curvature="0"
         style="clip-rule:evenodd" /></clipPath><clipPath
       clipPathUnits="userSpaceOnUse"
       id="clipPath30599"><path
         d="m 116.16,403.04 362.88,0 0,-187.2 -362.88,0 0,187.2 z"
         id="path30601"
         inkscape:connector-curvature="0"
         style="clip-rule:evenodd" /></clipPath><clipPath
       clipPathUnits="userSpaceOnUse"
       id="clipPath30605"><path
         d="m 0,842.04 595.2,0 0,-841.92 -595.2,0 0,841.92 z"
         id="path30607"
         inkscape:connector-curvature="0" /></clipPath></defs><sodipodi:namedview
     pagecolor="#ffffff"
     bordercolor="#666666"
     borderopacity="1"
     objecttolerance="10"
     gridtolerance="10"
     guidetolerance="10"
     inkscape:pageopacity="0"
     inkscape:pageshadow="2"
     inkscape:window-width="944"
     inkscape:window-height="1042"
     id="namedview17873"
     showgrid="false"
     fit-margin-top="0"
     fit-margin-left="0"
     fit-margin-right="0"
     fit-margin-bottom="0"
     inkscape:zoom="1.7919699"
     inkscape:cx="180.54176"
     inkscape:cy="57.139558"
     inkscape:window-x="0"
     inkscape:window-y="0"
     inkscape:window-maximized="0"
     inkscape:current-layer="g17879" /><g
     id="g17879"
     inkscape:groupmode="layer"
     inkscape:label="aps projector green led datasheet"
     transform="matrix(1.25,0,0,-1.25,-212.15125,779.973)"><g
       transform="translate(170.535,456.634)"
       id="g30523"><path
         inkscape:connector-curvature="0"
         id="path30525"
         style="fill:none;stroke:#158642;stroke-width:1.62800002;stroke-linecap:square;stroke-linejoin:miter;stroke-miterlimit:10;stroke-dasharray:none;stroke-opacity:1"
         d="m 0,0 0.326,0 0.364,0.019 0.364,0.057 0.364,-0.057 0.364,0.096 0.364,0 0.364,0 0.383,-0.02 0.364,0.02 L 3.621,0.095 3.985,0.23 4.349,0.191 4.712,0.153 5.076,0.23 5.44,0.21 5.804,0.268 6.168,0.172 6.532,0.345 6.896,0.268 7.279,0.307 7.643,0.383 8.008,0.364 l 0.364,0.077 0.364,0 0.364,0.038 0.364,0.077 0.364,-0.058 0.363,0.154 0.364,0.018 0.364,0.019 0.384,0.096 0.364,0.134 0.363,0.135 0.364,0.096 0.364,0.095 0.364,0.172 0.364,0.135 0.364,0.172 0.364,0.326 0.364,0.115 0.364,0.326 0.364,0.344 0.383,0.346 0.364,0.382 0.383,0.364 0.384,0.633 0.364,0.555 0.383,0.575 0.383,0.537 0.364,0.708 0.383,0.747 0.383,0.862 0.364,0.824 0.383,0.958 0.383,0.901 0.364,1.072 0.384,1.188 0.383,1.034 0.364,1.322 0.383,1.456 0.383,1.073 0.364,1.457 0.383,1.417 0.383,1.648 0.364,1.188 0.383,1.456 0.383,1.551 0.364,1.629 0.383,1.245 0.383,1.647 0.384,1.322 0.364,1.399 0.383,1.322 0.383,1.15 0.364,1.053 0.383,1.36 0.383,1.341 0.364,0.767 0.383,0.785 0.383,0.996 0.364,0.479 0.384,0.498 0.383,0.46 0.364,0.192 0.383,-0.173 0.383,0.039 0.364,-0.192 0.383,-0.537 0.383,-0.555 0.364,-0.958 0.383,-0.555 0.384,-1.322 0.363,-1.246 0.384,-1.302 0.383,-1.495 0.364,-1.705 0.383,-1.82 0.383,-1.552 0.383,-1.897 0.383,-1.895 0.383,-1.84 0.383,-1.686 0.383,-1.839 0.364,-1.61 0.383,-1.743 0.384,-1.552 0.383,-1.264 0.383,-1.495 0.383,-1.359 0.383,-1.264 0.364,-0.863 0.384,-0.882 0.383,-0.593 0.383,-0.958 0.383,-0.498 0.383,-0.594 0.383,-0.441 0.364,-0.517 0.383,-0.268 0.383,-0.326 0.383,-0.192 0.384,-0.344 0.383,-0.25 0.383,-0.134 0.364,-0.172 0.383,-0.134 0.383,-0.076 0.383,-0.173 0.383,-0.02 0.383,-0.171 0.384,0.018 0.364,-0.153 0.382,0.077 0.384,-0.115 0.383,0 0.383,-0.077 0.383,0.096 0.383,0.039 0.365,0.057 0.383,0.019 0.383,0.153 0.383,0.057 0.383,0.212 0.383,0.134 0.383,0.191 0.364,0.153 0.383,0.212 0.384,0.267 0.383,0.288 0.383,0.268 0.382,0.364 0.384,0.498 0.364,0.345 0.383,0.441 0.383,0.594 0.383,0.479 0.384,0.536 0.383,0.728 0.383,0.728 0.364,0.613 0.383,0.863 0.383,0.976 0.383,1.111 0.383,1.035 0.383,1.36 0.384,1.226 0.363,1.552 0.383,1.571 0.384,1.513 0.383,1.724 0.383,2.05 0.383,1.878 0.383,2.012 0.384,2.413 0.364,2.568 0.382,2.682 0.383,2.51 0.384,2.777 0.383,2.913 0.383,3.007 0.383,3.142 0.364,3.563 0.383,3.047 0.383,3.678 0.383,3.544 0.383,3.583 0.384,3.965 0.383,3.717 0.364,4.08 0.383,3.583 0.383,3.449 0.384,4.08 0.383,3.927 0.382,3.718 0.384,3.505 0.364,3.717 0.383,3.161 0.383,4.272 0.383,3.027 0.383,3.276" /></g><g
       transform="translate(245.763,577.942)"
       id="g30527"><path
         inkscape:connector-curvature="0"
         id="path30529"
         style="fill:none;stroke:#158642;stroke-width:1.62800002;stroke-linecap:square;stroke-linejoin:miter;stroke-miterlimit:10;stroke-dasharray:none;stroke-opacity:1"
         d="m 0,0 0.383,3.41 0.384,3.046 0.364,3.085 0.383,2.816 0.383,2.586 0.383,2.51 0.383,2.606 0.384,2.145 0.383,2.567 0.363,1.84 0.383,1.934 0.384,2.089 0.383,1.82 0.383,1.187 0.383,1.629 0.383,0.785 0.364,1.705 0.384,0.077 0.383,1.686 0.382,0.709 0.384,0.709 0.383,0.766 0.383,0.249 0.364,0.824 0.383,0.632 0.383,0.268 0.383,0.134 0.383,0.403 0.384,-0.403 0.383,0.709 0.364,-0.019 0.382,0.268 0.384,-0.996 0.384,0.402 0.383,-0.038 0.383,0.058 0.382,-0.077 0.384,0.038 0.364,-0.594 0.383,0.115 0.383,-0.383 0.383,0.134 0.383,-0.613 0.383,-0.23 0.383,-0.172 0.365,-0.326 0.383,-0.057 0.383,-0.364 0.383,-0.307 0.383,-0.421 0.383,-0.192 0.384,-0.632 0.363,0.115 0.383,-0.268 0.384,0.344 0.383,-0.21 0.383,-0.805 0.383,-0.191 0.383,-0.077 0.364,-0.23 0.383,0.421 0.383,-0.191 0.383,-0.422 0.384,-0.268 0.383,-0.613 0.383,0.134 0.364,0.077 0.383,-0.747 0.383,0.345 0.383,-0.575 0.383,-0.019 0.383,-0.613 0.384,0.651 0.364,0.038 0.382,-1.245 0.384,0.249 0.383,-0.268 0.383,-0.709 0.383,-0.211 0.383,-0.708 0.365,0.229 0.383,-0.325 0.383,-0.728 0.383,-0.307 0.383,-0.632 0.383,0.211 0.383,-0.652 0.403,-0.613 0.383,-0.575 0.382,0 0.384,-0.44 0.383,-0.383 0.383,-0.633 0.383,-0.172 0.383,-1.36 0.383,-0.862 0.384,-0.383 0.383,-0.441 0.383,-0.594 0.383,-0.594 0.383,-0.613 0.403,-0.862 0.383,-0.977 0.383,-0.785 0.383,-0.958 0.383,-0.997 0.383,-0.823 0.383,-0.748 0.384,-1.36 0.383,0.192 0.382,-1.111 0.384,-1.84 0.383,-0.134 0.383,-1.13 0.383,-1.59 0.402,-0.479 0.383,-1.188 0.384,-0.996 0.383,-1.073 0.383,-1.13 0.383,-0.997 0.383,-1.091 0.384,-1.495 0.383,-1.168 0.383,-0.901 0.383,-1.188 0.383,-1.188 0.383,-1.187 0.384,-1.016 0.402,-0.996 0.383,-1.666 0.382,-0.728 0.384,-1.763 0.383,-0.939 0.384,-1.302 0.382,-1.38 0.383,-0.862 0.384,-1.533 0.383,-1.494 0.383,-0.402 0.383,-1.859 0.383,-1.207 0.383,-0.938 0.384,-1.533 0.402,-1.418 0.383,-1.36 0.383,-0.958 0.383,-1.283 0.383,-0.958 0.384,-1.648 0.382,-0.9 0.384,-1.418 0.383,-1.379 0.383,-0.977 0.384,-1.093 0.382,-1.206 0.384,-1.188 0.401,-1.111 0.384,-1.361 0.383,-1.13 0.383,-0.996 0.383,-1.437 0.383,-1.226 0.383,-0.958 0.384,-1.456 0.382,-0.479 0.384,-1.628 0.383,-1.245 0.383,-0.748 0.384,-1.168 0.382,-1.207 0.384,-1.188 0.402,-0.498 0.383,-1.265 0.383,-1.225 0.384,-1.112 0.382,-0.785 0.383,-1.226 0.383,-0.805 0.384,-0.977 0.383,-1.437 0.383,-0.403 0.383,-1.11 0.383,-0.939 0.383,-1.418 0.403,-0.421 0.383,-1.054 0.383,-0.402 0.383,-0.92 0.383,-0.727 0.384,-1.151 0.382,-0.842 0.384,-0.767 0.382,-1.072 0.384,-0.594 0.383,-0.69 0.383,-1.131 0.384,-0.746 0.382,-0.843 0.383,-0.537" /></g><g
       transform="translate(322.313,497.153)"
       id="g30531"><path
         inkscape:connector-curvature="0"
         id="path30533"
         style="fill:none;stroke:#158642;stroke-width:1.62800002;stroke-linecap:square;stroke-linejoin:miter;stroke-miterlimit:10;stroke-dasharray:none;stroke-opacity:1"
         d="M 0,0 0.402,-0.843 0.786,-1.342 1.168,-2.012 1.552,-2.701 1.935,-3.736 2.318,-4.292 2.701,-4.943 3.084,-5.939 3.468,-6.035 3.851,-7.032 4.234,-7.625 4.616,-8.219 5,-9.004 l 0.383,-0.633 0.403,-0.249 0.382,-0.651 0.384,-0.767 0.382,-0.613 0.384,-0.402 0.383,-0.766 0.383,-0.46 0.384,-0.307 0.382,-0.785 0.384,-0.268 0.383,-0.441 0.383,-0.612 0.383,-0.537 0.383,-0.632 0.402,-0.307 0.384,-0.479 0.383,-0.23 0.383,-0.69 0.382,-0.268 0.384,-0.422 0.383,-0.459 0.384,-0.441 0.383,-0.267 0.402,-0.557 0.383,-0.229 0.383,-0.307 0.383,-0.402 0.383,-0.479 0.384,-0.345 0.382,-0.517 0.384,-0.288 0.383,-0.479 0.383,-0.114 0.403,-0.211 0.382,-0.498 0.384,-0.249 0.383,-0.23 0.383,-0.211 0.383,-0.498 0.383,-0.287 0.383,-0.403 0.383,-0.115 0.403,-0.095 0.383,-0.269 0.383,-0.402 0.383,-0.326 0.383,-0.306 0.383,-0.192 0.384,-0.326 0.383,-0.383 0.383,0.115 0.402,-0.364 0.383,-0.153 0.383,-0.287 0.384,-0.23 0.382,-0.211 0.384,-0.268 0.382,-0.115 0.384,-0.345 0.384,-0.134 0.402,-0.134 0.383,-0.019 0.382,-0.231 0.384,-0.268 0.383,-0.191 0.383,-0.172 0.383,-0.135 0.383,-0.344 0.383,-0.096 0.384,-0.173 0.402,-0.114 0.383,-0.096 0.383,-0.249 0.383,-0.02 0.383,-0.153 0.384,-0.154 0.383,-0.172 0.383,-0.134 0.383,-0.134 0.402,-0.192 0.383,-0.114 0.383,-0.154 0.384,-0.134 0.382,0.019 0.384,-0.095 0.383,-0.172 0.383,-0.212 0.384,-0.153 0.402,-0.096 0.383,-0.095 0.382,-0.038 0.384,-0.173 0.383,-0.134 0.383,0.019 0.383,-0.096 0.383,-0.153 0.384,-0.172 0.402,0 0.384,0.057 0.382,-0.326 0.384,0 0.382,-0.096 0.384,-0.172 0.383,-0.019 0.383,0 0.383,-0.153 0.383,-0.134 0.402,0.057 0.384,-0.115 0.382,-0.096 0.384,-0.096 0.383,0.039 0.383,-0.211 0.384,-0.057 0.382,0 0.384,-0.077 0.402,-0.057 0.383,-0.039 0.383,-0.095 0.384,-0.135 0.382,0.077 0.383,0.038 0.383,-0.115 0.403,-0.268 0.383,-0.019 0.383,-0.096 0.384,0.019 0.401,0.02 0.384,-0.154 0.383,0 0.383,-0.076 0.402,-0.077 0.384,0.038 0.382,-0.153 0.384,0.115 0.402,-0.057 0.383,-0.039 0.383,-0.039 0.383,-0.076 0.403,0 0.383,-0.096 0.383,0.02 0.383,-0.039 0.402,-0.057 0.383,-0.039 0.384,-0.038 0.382,-0.038 0.384,0 0.402,-0.038 0.383,-0.057 0.384,-0.155 0.383,0.096 0.402,-0.134 0.383,0.057 0.383,-0.037 0.383,-0.077 0.403,0.019 0.383,-0.038 0.383,-0.038 0.382,-0.039 0.403,-0.038 0.383,0.019 0.384,0.019 0.383,-0.172 0.402,0.019 0.383,-0.019 0.383,0.038 0.383,-0.077 0.402,0.039 0.384,0 0.383,-0.039 0.383,-0.019 0.403,-0.096 0.382,0 0.384,0 0.383,-0.095 0.383,0 0.402,0.038 0.383,-0.019 0.383,-0.038 0.384,0.057 0.402,-0.172 0.383,0.076 0.383,-0.019 0.383,-0.019 0.403,-0.077" /></g><g
       transform="translate(399.515,456.711)"
       id="g30535"><path
         inkscape:connector-curvature="0"
         id="path30537"
         style="fill:none;stroke:#158642;stroke-width:1.62800002;stroke-linecap:square;stroke-linejoin:miter;stroke-miterlimit:10;stroke-dasharray:none;stroke-opacity:1"
         d="m 0,0 0.382,0.096 0.384,-0.115 0.383,-0.077 0.403,0.057 0.382,-0.018 0.383,0 0.402,-0.077 0.384,0.058 0.383,0 0.403,-0.077 0.383,0.077 0.402,0.037 0.383,-0.076 0.383,-0.019 0.402,0 0.384,-0.057 0.402,0.057 0.383,0 0.383,-0.057 0.402,0.019 0.383,-0.058 0.403,0 0.383,0.077 0.383,-0.096 0.403,-0.019 0.383,0.038 0.402,-0.019 0.383,-0.076 0.382,0.038 0.403,-0.058 0.383,0.058 0.403,-0.077 0.383,0.058 0.383,-0.154 0.403,0.154 0.382,-0.019 0.403,-0.192 0.382,0.192 0.384,-0.077 0.402,-0.019 0.384,0.096 0.402,-0.153 0.383,0.057 0.383,-0.019 0.402,-0.038 0.383,0.038 0.403,0 0.383,0 0.383,-0.077 0.403,0.057 0.382,-0.095 0.403,0.058 0.383,0.057 0.383,-0.02 0.402,-0.057 0.384,-0.019 0.402,0.115 0.383,0 0.383,-0.115 0.402,0.019 0.383,0 0.402,0 0.384,-0.077 0.383,0.039 0.402,0 0.384,0.058 0.401,-0.173 0.384,0.076 0.383,-0.019 0.402,0.077 0.383,0.039 0.403,-0.058 0.382,-0.058 0.384,0.058 0.403,-0.02 0.382,-0.038 0.403,-0.153 0.382,0.114 0.384,0.039 0.402,-0.057 0.384,0.057 0.401,-0.02 0.384,0 0.382,-0.076 0.403,0.076 0.383,-0.037 0.403,0 0.383,0.057" /></g></g></svg>